<?xml version="1.0" standalone="no"?>
<!DOCTYPE svg PUBLIC "-//W3C//DTD SVG 20010904//EN"
 "http://www.w3.org/TR/2001/REC-SVG-20010904/DTD/svg10.dtd">
<svg version="1.0" xmlns="http://www.w3.org/2000/svg"
 width="992.000000pt" height="992.000000pt" viewBox="0 0 992.000000 992.000000"
 preserveAspectRatio="xMidYMid meet">
<metadata>
Created by potrace 1.11, written by Peter Selinger 2001-2013
</metadata>
<g transform="translate(0.000000,992.000000) scale(0.100000,-0.100000)"
fill="#000000" stroke="none">
<path d="M5572 6836 c-5 -6 -23 -56 -42 -111 -18 -55 -38 -111 -43 -125 -6
-14 -11 -29 -13 -35 -1 -5 -30 -89 -64 -185 -51 -146 -72 -206 -85 -250 -1 -3
-4 -12 -8 -20 -3 -8 -40 -114 -82 -235 -42 -121 -79 -227 -82 -235 -4 -8 -8
-19 -8 -25 -1 -5 -5 -17 -8 -25 -11 -29 -109 -305 -113 -320 -3 -13 -37 -108
-57 -160 -3 -8 -18 -53 -33 -100 -14 -47 -29 -89 -33 -95 -3 -5 -6 -14 -8 -20
-1 -5 -27 -82 -58 -170 -31 -88 -58 -164 -59 -170 -2 -5 -6 -17 -9 -25 -7 -18
-81 -232 -108 -315 -11 -33 -24 -69 -29 -80 -5 -11 -22 -60 -39 -110 -16 -49
-60 -173 -96 -275 -36 -102 -68 -196 -71 -209 -3 -14 -8 -29 -12 -35 -4 -6 -7
-14 -8 -18 -1 -5 -3 -10 -4 -13 -1 -3 -3 -8 -4 -12 -1 -5 -10 -33 -21 -63 -11
-30 -20 -57 -20 -60 -1 -3 -5 -12 -8 -20 -11 -26 -108 -304 -112 -324 -2 -10
-9 -24 -16 -32 -6 -8 -9 -14 -6 -14 3 0 -12 -51 -35 -112 -22 -62 -41 -117
-42 -123 -2 -5 -6 -19 -10 -30 -5 -11 -14 -36 -21 -56 -8 -20 -11 -39 -8 -43
4 -3 0 -6 -7 -6 -7 0 -10 -3 -7 -6 3 -4 2 -15 -4 -26 -6 -11 -12 -27 -14 -36
-4 -17 -97 -282 -130 -372 -15 -40 -28 -190 -19 -215 3 -6 89 -10 232 -10
l227 0 38 105 c20 58 38 113 39 123 1 9 7 17 12 17 5 0 7 3 3 6 -3 3 -1 18 5
33 13 33 85 241 203 586 51 149 107 311 124 360 18 50 34 101 37 114 3 13 9
32 14 41 9 17 70 196 74 215 1 6 4 15 8 20 4 6 23 62 43 125 21 63 40 120 43
125 4 6 7 15 8 20 1 6 21 64 44 130 24 66 43 126 43 133 0 6 3 12 7 12 4 0 7
7 8 15 1 8 3 22 4 30 1 8 4 15 8 15 4 0 7 6 7 13 0 11 84 259 100 297 3 8 7
20 9 25 3 14 94 276 101 295 3 8 7 20 9 25 1 6 23 71 49 145 26 74 48 140 49
145 1 6 5 16 9 22 5 7 10 21 12 30 2 10 20 65 40 123 20 58 38 110 39 115 2 6
6 17 9 25 10 25 48 134 52 150 2 8 17 52 34 98 16 45 27 82 24 82 -3 0 -1 6 5
13 5 6 14 28 20 47 6 19 47 141 92 270 45 129 88 253 95 275 7 22 38 112 67
200 47 139 54 170 54 235 l-1 75 -217 1 c-152 1 -220 -2 -226 -10z m368 -68
c0 -2 -14 -41 -31 -88 -17 -47 -32 -92 -34 -100 -5 -19 -63 -190 -72 -210 -3
-8 -7 -19 -8 -25 -3 -11 -62 -182 -96 -275 -11 -30 -21 -62 -23 -70 -3 -8 -12
-35 -21 -60 -9 -25 -18 -52 -20 -60 -2 -8 -27 -80 -55 -160 -29 -80 -57 -164
-63 -187 -6 -24 -15 -43 -20 -43 -5 0 -7 -7 -3 -15 3 -8 0 -15 -6 -15 -6 0 -8
-3 -5 -7 4 -3 2 -12 -4 -20 -6 -7 -8 -13 -4 -13 4 0 2 -7 -5 -15 -7 -8 -10
-15 -7 -15 3 0 -10 -44 -30 -97 -19 -54 -36 -102 -37 -108 -2 -5 -6 -17 -9
-25 -3 -8 -38 -109 -77 -225 -39 -115 -89 -259 -110 -320 -21 -60 -55 -159
-75 -220 -21 -60 -58 -166 -82 -235 -24 -69 -45 -129 -47 -135 -1 -5 -11 -35
-21 -65 -11 -30 -20 -57 -20 -60 -1 -3 -4 -12 -8 -20 -3 -8 -29 -85 -58 -170
-28 -85 -56 -161 -62 -167 -5 -7 -7 -13 -4 -13 3 0 -7 -36 -23 -80 -16 -44
-27 -80 -24 -80 3 0 -1 -10 -8 -22 -6 -13 -13 -27 -14 -33 -2 -8 -123 -360
-149 -433 -2 -7 -4 -13 -4 -15 0 -2 -59 -173 -68 -197 -3 -8 -7 -22 -9 -30 -2
-8 -7 -23 -13 -35 -5 -11 -19 -49 -31 -85 -11 -36 -24 -72 -27 -80 -3 -8 -7
-19 -9 -25 -4 -15 -124 -368 -131 -385 -3 -8 -5 -18 -5 -23 1 -4 -1 -8 -6 -8
-11 -2 -312 -6 -312 -4 0 3 120 350 127 365 3 8 7 22 9 31 2 9 9 29 15 45 7
16 13 34 15 39 4 15 103 298 111 315 3 8 7 21 9 28 1 8 6 21 10 30 4 9 8 22 9
27 3 11 143 411 152 435 4 8 7 17 8 20 4 19 28 89 35 105 9 21 100 283 104
300 2 6 6 18 9 28 4 9 10 25 14 35 3 9 7 22 9 27 1 6 30 89 64 185 34 96 63
183 65 193 2 9 7 23 12 30 4 6 8 17 9 22 3 13 80 236 134 385 23 63 43 120 44
125 10 38 31 101 36 105 3 3 6 12 8 20 4 16 266 775 297 858 2 7 5 16 6 20 2
5 105 304 124 360 2 7 4 13 3 15 -1 1 4 12 11 25 7 13 14 31 16 40 2 9 25 76
50 147 26 72 51 146 57 165 6 19 26 78 45 130 19 52 36 101 38 108 3 9 42 12
150 12 80 0 145 -1 145 -2z"/>
<path d="M3469 5921 c-7 -2 -331 -323 -720 -713 l-709 -710 0 -79 0 -79 713
-713 712 -712 77 0 77 0 99 96 98 96 -1 78 -1 77 -578 577 -578 577 578 578
577 579 1 75 c2 85 1 88 -107 190 -33 31 -66 63 -74 70 -12 13 -137 23 -164
13z m176 -174 l96 -94 -619 -618 -618 -619 618 -616 618 -615 -99 -98 -99 -97
-693 694 c-382 382 -703 703 -713 715 l-20 22 709 709 c391 391 713 710 717
710 3 0 50 -42 103 -93z"/>
<path d="M6317 5921 c-6 -2 -55 -46 -108 -98 l-96 -94 2 -79 1 -79 578 -578
578 -577 -579 -577 -578 -577 -1 -77 0 -78 98 -97 98 -96 79 1 79 1 711 711
711 711 0 80 0 79 -711 712 c-391 391 -714 711 -717 712 -27 3 -134 3 -145 0z
m226 -228 c80 -82 399 -400 707 -708 308 -308 560 -563 560 -566 0 -4 -320
-326 -711 -718 l-711 -711 -99 97 -100 97 616 613 c338 337 615 616 615 619 0
3 -277 283 -616 621 l-615 616 96 94 c53 51 99 93 103 93 5 0 74 -66 155 -147z"/>
</g>
</svg>
